PathFileType	4	(X/Y/Z)	Patient4_TMGait_0pt8_01_right_17.trc.trc
DataRate	CameraRate	NumFrames	NumMarkers	Units	OrigDataRate	OrigDataStartFrame	OrigNumFrames
88.050314465409	88.050314465409	4	33	mm	88.050314465409	36	       141
Frame#	Time	Sacral			L.Shoulder			Chest			R.Shoulder			Neck			R.ASIS			L.ASIS			R.Thigh.Superior			R.Thigh.Lateral			R.Thigh.Inferior			R.Patella			L.Thigh.Superior			L.Thigh.Lateral			L.Thigh.Inferior			L.Patella			L.Shank.Superior			L.Shank.Lateral			L.Shank.Inferior			R.Shank.Superior			R.Shank.Lateral			R.Shank.Inferior			R.Heel			R.Midfoot.Superior			R.Midfoot.Lateral			R.Toe			L.Heel			L.Midfoot.Lateral			L.Midfoot.Superior			L.Toe			L.Elbow			L.Wrist			R.Elbow			R.Wrist			
		X1	Y1	Z1	X2	Y2	Z2	X3	Y3	Z3	X4	Y4	Z4	X5	Y5	Z5	X6	Y6	Z6	X7	Y7	Z7	X8	Y8	Z8	X9	Y9	Z9	X10	Y10	Z10	X11	Y11	Z11	X12	Y12	Z12	X13	Y13	Z13	X14	Y14	Z14	X15	Y15	Z15	X16	Y16	Z16	X17	Y17	Z17	X18	Y18	Z18	X19	Y19	Z19	X20	Y20	Z20	X21	Y21	Z21	X22	Y22	Z22	X23	Y23	Z23	X24	Y24	Z24	X25	Y25	Z25	X26	Y26	Z26	X27	Y27	Z27	X28	Y28	Z28	X29	Y29	Z29	X30	Y30	Z30	X31	Y31	Z31	X32	Y32	Z32	X33	Y33	Z33	

36	19.247500000000	921.395236366606	990.871107215615	443.467246487080	1089.496019742192	1424.572233979258	265.560019384291	1183.627362792763	1360.336250735522	434.343234000462	1082.653078997204	1427.396719327815	602.029846739268	1057.765842011445	1484.256828028444	419.922569236955	1148.309518025921	936.567620249836	567.532201612344	1139.691658338013	949.971347109800	293.685459229293	1219.637473489149	751.350772003225	533.429157250301	1159.002346903534	629.759714988725	593.968104912795	1245.053611987469	590.303278501985	514.434525486521	1262.123186660319	498.178814756628	523.098854244129	1148.886564828606	720.460996554782	312.564286617759	1038.875563317041	620.173152153834	250.499823657480	1114.143339564377	523.726090816155	302.987884682172	1094.868351849813	441.838742460824	299.338734782657	1024.242588273391	390.147736572158	297.502265721110	879.709131171900	348.150974598543	261.454276130967	870.241053830262	218.905431609292	317.322724539957	1233.191878887974	406.971609976745	528.232733724840	1162.362860422457	300.988353815856	585.681137821377	1208.860536902369	207.207754277723	525.288304979251	1080.058450066607	41.636765362194	489.148785336443	1249.262854559368	98.366979773877	535.411971869371	1158.723131508555	37.747835385902	569.374742146299	1367.182201639551	44.472974152328	571.076030002761	683.625074010450	146.355815659794	372.136000680296	737.287232680064	95.752146726756	293.653650913813	841.937705101692	114.595002937868	305.339694400460	926.356570496081	33.139946429935	286.405916099314	1157.367040591559	1090.329368761288	127.600631605531	1410.105565212321	1070.885992594504	162.420263724619	966.002270472853	1095.729370211876	698.643835290586	953.551688066091	836.311903607156	711.007581365054	
37	19.258857142857	922.168037892821	992.037131043864	446.985638543005	1088.690940821791	1425.449722426008	267.113269626405	1184.138731798294	1361.652115131874	435.330431976865	1084.296190674361	1428.891881605014	603.547671429751	1057.899024178987	1485.330487727528	421.544071560440	1149.622242458659	937.897516059397	569.929719801360	1139.806332384058	950.924288188348	296.418509649422	1218.862794557034	750.332604006423	536.775407312727	1155.792447137761	629.655146221964	596.218844596145	1241.580822083750	589.275395885518	516.855493024906	1257.240378048222	497.106402609741	524.844116809290	1154.322861819177	722.273404054696	314.837610098540	1048.153494761541	619.506095034515	251.445323547553	1126.182616470195	524.398857977591	303.671717363917	1107.656730800818	441.354681341289	299.251983808268	1035.004883833448	390.113122242233	297.395331530836	888.959834474398	353.706819038344	261.154564341995	874.798526786349	224.716130798359	316.293049433715	1227.469833763507	406.201423645312	529.691750756353	1155.757598761049	300.684453628984	586.657566327167	1201.327017410697	206.738707795469	525.814984168722	1071.188421894159	41.628622045082	489.291958652976	1240.355700523811	98.283493465579	535.614273683610	1149.781677385559	37.732794066662	569.435856888762	1358.310224479326	44.181090610044	571.404865425098	685.675670507925	163.433536006860	370.293599278030	735.875609510987	108.417005551171	292.392756306852	841.466578200174	119.401599105608	304.298924281429	918.160241576253	31.536928390631	286.480552769807	1150.469404817865	1088.417254126625	131.896870985371	1402.839186472639	1056.731958801073	164.299602655952	975.482389733641	1094.155517480710	702.280611307323	976.463306670437	834.066194849707	712.956543288121	
38	19.270214285714	922.725957873943	993.122740600796	450.466800616773	1087.653708804223	1426.153234975866	268.564012902094	1184.532009575156	1362.821275164186	436.150474586257	1085.965594100242	1430.238623170978	604.992889723453	1057.974077358308	1486.282469989753	423.103313606866	1150.720103240914	939.046203133743	572.231822205815	1139.712449179713	951.760505235715	298.925952469256	1217.754401950228	749.198470412973	540.203068316668	1152.159304397527	629.479103898437	598.435030194859	1237.694546272071	588.185474776139	519.270211998880	1251.897268049857	496.013755472085	526.588828753014	1159.835649497426	724.276815958106	317.078058758121	1057.695607147187	619.047622256700	252.384005590522	1138.369369628407	525.481501419785	304.670901273233	1120.840341291334	441.355655885083	299.737992292201	1046.397276185090	390.394543696328	297.715772392366	899.216287974983	359.333944496436	260.838701164665	880.358121804433	230.855562283282	315.525379168964	1221.366613695139	405.430113246916	531.150396240264	1148.838586819259	300.337466277047	587.636632063198	1193.601487907484	206.279549491312	526.362120302816	1062.250855420448	41.634485410609	489.423636339136	1231.404515135092	98.151613530153	535.782452625844	1140.780170389903	37.692672294330	569.490485655967	1349.376808812387	43.817185992966	571.684282484114	689.332343628076	180.920284755994	368.401139664472	735.981821236173	121.888842499686	291.024609138464	842.053415195962	124.935539991472	303.462543680908	910.689604786008	29.920045897019	286.459167938963	1143.579578490993	1086.453716403316	136.275064151667	1394.861409163712	1041.400139054918	166.036262693775	985.181987476223	1092.693723096693	706.001358074715	1000.518529235974	832.653011238946	714.677878480981	
39	19.281571428571	923.063779894752	994.127334610269	453.875546392789	1086.406780346852	1426.683267875671	269.901285886357	1184.807471698748	1363.828698752476	436.798882454303	1087.658835782353	1431.425808971641	606.357141479882	1058.008626749685	1487.122576976476	424.582976834170	1151.591289124741	940.022492396036	574.429836330061	1139.464828138212	952.496732175558	301.176548843115	1216.346266090355	748.032322119636	543.583988493005	1148.252036040332	629.286178851084	600.588494856216	1233.495308923389	587.083322814584	521.611479155469	1246.195727260336	494.934553332349	528.307921537369	1165.286133607434	726.506303597715	319.313123733051	1067.327959241175	618.892537348574	253.364199619099	1150.514539651292	527.051289688232	306.015928892963	1134.240737492617	441.907330406834	300.778314630690	1058.245306091913	391.065481379731	298.465263413755	910.280022511475	364.976471569462	260.568980826273	886.867295957873	237.203700144895	315.041598527390	1214.983109432764	404.680137252175	532.578896836073	1141.696466365930	299.984781040464	588.616851282782	1185.731507970928	205.844648826953	526.923344200767	1053.248393495345	41.666966945995	489.558924027795	1222.418017674919	97.991065518687	535.923233499694	1131.727077387637	37.642404668233	569.564395384751	1340.386804912127	43.399746465238	571.922624205625	694.527183964786	198.230897586539	366.548462578244	737.709155691800	135.709152863583	289.600312296409	843.833553850987	131.079886761447	302.807250960772	904.370758884820	28.488127639428	286.279938137829	1136.780433116518	1084.431002100157	140.728699417011	1386.048290765267	1024.983369497559	167.620251143237	995.131753939515	1091.331642879968	709.773291570506	1025.609806581845	832.226350912685	716.136544627882	
